<?xml version="1.0" encoding="utf-8"?>
<!-- Generator: Adobe Illustrator 16.0.0, SVG Export Plug-In . SVG Version: 6.00 Build 0)  -->
<!DOCTYPE svg PUBLIC "-//W3C//DTD SVG 1.1//EN" "http://www.w3.org/Graphics/SVG/1.1/DTD/svg11.dtd">
<svg version="1.1" id="Layer_1" xmlns="http://www.w3.org/2000/svg" xmlns:xlink="http://www.w3.org/1999/xlink" x="0px" y="0px"
	 width="351px" height="100px" viewBox="-141.5 0 351 100" enable-background="new -141.5 0 351 100" xml:space="preserve">
<g>
	<g>
		<path fill="#FFFFFF" d="M169.749,49.061h-27.785c-1.241,0-2.252-1.01-2.252-2.252V19.023c0-1.242,1.011-2.252,2.252-2.252h27.785
			c1.242,0,2.253,1.01,2.253,2.252v27.786C172.002,48.051,170.991,49.061,169.749,49.061z M141.964,18.273
			c-0.414,0-0.75,0.336-0.75,0.75v27.786c0,0.414,0.336,0.751,0.75,0.751h27.785c0.413,0,0.751-0.337,0.751-0.751V19.023
			c0-0.415-0.338-0.75-0.751-0.75H141.964z"/>
	</g>
	<g>
		<path fill="#FFFFFF" d="M148.096,37.547c-0.191,0-0.384-0.073-0.531-0.22c-0.293-0.293-0.293-0.769,0-1.062l7.76-7.76
			c0.281-0.282,0.781-0.282,1.062,0l7.761,7.76c0.293,0.293,0.293,0.769,0,1.062s-0.77,0.293-1.062,0l-7.229-7.229l-7.229,7.229
			C148.48,37.474,148.289,37.547,148.096,37.547z"/>
	</g>
	<g>
		<path fill="#FFFFFF" d="M169.749,82.854h-27.785c-1.241,0-2.252-1.01-2.252-2.252V52.816c0-1.242,1.011-2.254,2.252-2.254h27.785
			c1.242,0,2.253,1.012,2.253,2.254v27.785C172.002,81.844,170.991,82.854,169.749,82.854z M141.964,52.064
			c-0.414,0-0.75,0.338-0.75,0.752v27.785c0,0.414,0.336,0.75,0.75,0.75h27.785c0.413,0,0.751-0.336,0.751-0.75V52.816
			c0-0.414-0.338-0.752-0.751-0.752H141.964z"/>
	</g>
	<g>
		<path fill="#FFFFFF" d="M155.857,71.34c-0.199,0-0.391-0.08-0.531-0.221l-7.76-7.762c-0.293-0.293-0.293-0.768,0-1.061
			c0.293-0.295,0.768-0.295,1.062,0l7.229,7.229l7.229-7.229c0.293-0.295,0.769-0.295,1.062,0c0.295,0.293,0.295,0.768,0,1.061
			l-7.759,7.762C156.247,71.26,156.057,71.34,155.857,71.34z"/>
	</g>
	<g>
		<path fill="#FFFFFF" d="M203.541,82.854h-27.785c-1.241,0-2.252-1.01-2.252-2.252V52.816c0-1.242,1.011-2.254,2.252-2.254h27.785
			c1.241,0,2.253,1.012,2.253,2.254v27.785C205.794,81.844,204.782,82.854,203.541,82.854z M175.756,52.064
			c-0.413,0-0.751,0.338-0.751,0.752v27.785c0,0.414,0.338,0.75,0.751,0.75h27.785c0.414,0,0.751-0.336,0.751-0.75V52.816
			c0-0.414-0.337-0.752-0.751-0.752H175.756z"/>
	</g>
	<g>
		<path fill="#FFFFFF" d="M185.769,75.219c-0.19,0-0.384-0.072-0.529-0.219c-0.295-0.293-0.295-0.77,0-1.062l7.229-7.229
			l-7.229-7.23c-0.295-0.293-0.295-0.768,0-1.061c0.293-0.295,0.769-0.295,1.062,0l7.761,7.76c0.293,0.293,0.293,0.77,0,1.062
			L186.301,75C186.153,75.146,185.961,75.219,185.769,75.219z"/>
	</g>
	<g>
		<path fill="#FFFFFF" d="M135.957,82.854h-27.785c-1.242,0-2.253-1.01-2.253-2.252V52.816c0-1.242,1.011-2.254,2.253-2.254h27.785
			c1.242,0,2.253,1.012,2.253,2.254v27.785C138.21,81.844,137.199,82.854,135.957,82.854z M108.172,52.064
			c-0.414,0-0.751,0.338-0.751,0.752v27.785c0,0.414,0.337,0.75,0.751,0.75h27.785c0.414,0,0.751-0.336,0.751-0.75V52.816
			c0-0.414-0.337-0.752-0.751-0.752H108.172z"/>
	</g>
	<g>
		<path fill="#FFFFFF" d="M125.943,75.219c-0.19,0-0.383-0.072-0.53-0.219l-7.761-7.76c-0.293-0.295-0.293-0.77,0-1.062l7.761-7.76
			c0.293-0.295,0.769-0.295,1.062,0c0.293,0.293,0.293,0.768,0,1.061l-7.229,7.23l7.229,7.229c0.293,0.293,0.293,0.77,0,1.062
			C126.328,75.146,126.136,75.219,125.943,75.219z"/>
	</g>
</g>
<g>
	<path fill="#FFFFFF" d="M-87.741,47.827c-2.887-10.587-12.495-18.036-23.609-18.036c-9.482,0-17.894,5.43-21.942,13.646
		l-0.522-6.321c-0.113-1.369-2.194-1.198-2.082,0.17l0.901,10.892c0.009,0.211,0.082,0.393,0.199,0.539l0,0.002
		c0.041,0.051,0.086,0.098,0.138,0.141c0.248,0.227,0.594,0.328,0.932,0.25c0.045-0.008,0.088-0.018,0.132-0.033
		c0.013-0.004,0.026-0.008,0.039-0.014c0.117-0.043,0.225-0.109,0.32-0.201l8.518-6.706c1.077-0.848-0.212-2.489-1.29-1.642
		l-5.739,4.518c3.567-7.885,11.476-13.152,20.396-13.152c10.154,0,18.962,6.816,21.602,16.494
		C-89.389,49.694-87.381,49.147-87.741,47.827z"/>
	<g>
		<path fill="#FFFFFF" d="M-112.973,47.898h2.516l8.936,21.935h-2.226l-2.193-5.322h-11.935l-2.29,5.322h-2.226L-112.973,47.898z
			 M-117.231,62.801h10.709l-5.193-12.677L-117.231,62.801z"/>
	</g>
</g>
<g>
	<path fill="#FFFFFF" d="M30.312,37.29c0.113-1.37-1.968-1.541-2.082-0.172l-0.522,6.322c-4.038-8.193-12.431-13.648-21.942-13.648
		c-11.124,0-20.724,7.457-23.609,18.037c-0.36,1.321,1.648,1.868,2.008,0.547c2.637-9.67,11.44-16.494,21.601-16.494
		c8.943,0,16.834,5.289,20.395,13.152l-5.737-4.518c-1.078-0.847-2.368,0.793-1.291,1.642l8.515,6.701
		c0.096,0.096,0.206,0.162,0.326,0.207c0.011,0.006,0.022,0.008,0.034,0.013c0.045,0.014,0.091,0.024,0.139,0.033
		c0.338,0.076,0.684-0.023,0.93-0.253c0.049-0.04,0.092-0.086,0.132-0.135c0.001-0.004,0.003-0.006,0.006-0.007
		c0.113-0.145,0.185-0.323,0.196-0.529l0,0L30.312,37.29z"/>
	<g>
		<path fill="#FFFFFF" d="M-1.424,47.898h8.419c6.484,0.032,11.322,3.87,11.322,10.999c0,7.064-4.838,10.936-11.322,10.936h-8.419
			V47.898z M0.769,49.866v17.999h6.129c5.322,0,9.161-3.129,9.161-8.968c0-5.902-3.839-9.031-9.161-9.031H0.769z"/>
	</g>
</g>
</svg>
